<?xml version="1.0" encoding="UTF-8" standalone="no"?>
<svg
   viewBox="0 0 20 20"
   fill="#ffffff"
   width="19"
   height="19"
   aria-hidden="true"
   aria-label="Tablero público"
   class="icon_component"
   version="1.1"
   id="svg4"
   sodipodi:docname="proyecto.svg"
   inkscape:version="1.2.2 (732a01da63, 2022-12-09)"
   xmlns:inkscape="http://www.inkscape.org/namespaces/inkscape"
   xmlns:sodipodi="http://sodipodi.sourceforge.net/DTD/sodipodi-0.dtd"
   xmlns="http://www.w3.org/2000/svg"
   xmlns:svg="http://www.w3.org/2000/svg">
  <defs
     id="defs8" />
  <sodipodi:namedview
     id="namedview6"
     pagecolor="#ffffff"
     bordercolor="#000000"
     borderopacity="0.25"
     inkscape:showpageshadow="2"
     inkscape:pageopacity="0.0"
     inkscape:pagecheckerboard="0"
     inkscape:deskcolor="#d1d1d1"
     showgrid="false"
     inkscape:zoom="21.815789"
     inkscape:cx="9.6718938"
     inkscape:cy="10.90953"
     inkscape:window-width="1920"
     inkscape:window-height="1009"
     inkscape:window-x="-8"
     inkscape:window-y="-8"
     inkscape:window-maximized="1"
     inkscape:current-layer="svg4" />
  <path
     d="M7.5 4.5H16C16.2761 4.5 16.5 4.72386 16.5 5V15C16.5 15.2761 16.2761 15.5 16 15.5H7.5L7.5 4.5ZM6 4.5H4C3.72386 4.5 3.5 4.72386 3.5 5V15C3.5 15.2761 3.72386 15.5 4 15.5H6L6 4.5ZM2 5C2 3.89543 2.89543 3 4 3H16C17.1046 3 18 3.89543 18 5V15C18 16.1046 17.1046 17 16 17H4C2.89543 17 2 16.1046 2 15V5Z"
     fill="#ffffff"
     fill-rule="evenodd"
     clip-rule="evenodd"
     id="path2" />
</svg>
